<?xml version="1.0" encoding="UTF-8"?>
<svg id="Layer_1" data-name="Layer 1" xmlns="http://www.w3.org/2000/svg" viewBox="0 0 486.74 108.88"><script xmlns=""/>
  <defs>
    <style>
      .cls-1 {
        fill: #59bec9;
      }
    </style>
  </defs>
  <g>
    <path class="cls-1" d="M5.01,102.2C2.13,93.23.36,84.32.03,74.84c-.18-5.05.46-10.09,1.94-14.94,5.06-17.07,20.93-26.47,38.45-22.16,16.02,4.13,20.85,19.63,22.84,33.97,1.73,9.73,6.86,20.43,16.77,23.48,11.43,3.17,21.39-3.16,25.84-13.77,2.52-5.44,2.65-11.42,2.57-17.54-.04-3.58,4.98-4.46,6.19-1.13,5.49,14.56-.49,32.29-14.09,40.26-15.24,8.52-33.43,3.16-42.25-11.61-3.42-5.49-5.46-11.37-6.67-17.54-1.16-6.43-2.64-14.25-6.62-19.13-4.13-5.39-11.61-6.39-17.92-4.99-8.92,1.95-13.76,10.89-15.44,19.41-1.69,10.3-.6,20.85.24,31.49.47,4.25-5.48,5.58-6.88,1.56h0Z"/>
    <circle class="cls-1" cx="32.2" cy="15.54" r="15.54"/>
    <circle class="cls-1" cx="84.54" cy="74.03" r="11.88"/>
  </g>
  <g>
    <path class="cls-1" d="M189.44,70.35c0,12.23-9.69,20.06-26.87,20.06h-20.62c-3.52,0-4.93-.53-4.93-2.46,0-4.57,5.82-1.06,5.82-12.49v-31.67c0-11.44-5.82-7.92-5.82-12.49,0-1.94,1.41-2.46,4.93-2.46h17.97c13.22,0,22.47,3.61,22.55,13.37.09,5.28-2.82,9.41-8.46,11.35,9.96,2.11,15.42,8.44,15.42,16.8ZM155.25,49.41c0,2.11,2.55,1.94,4.58,1.94,7.05,0,10.4-2.46,10.4-7.48,0-5.28-4.41-9.5-11.28-9.5-2.2,0-3.7.53-3.7,2.81v12.23ZM175.96,72.63c0-8.62-6.08-15.48-17-15.48-3.17,0-3.7.79-3.7,2.9v18.65c0,4.31,1.06,6.16,7.14,6.16,9.08,0,13.57-3.78,13.57-12.23Z"/>
    <path class="cls-1" d="M241.94,85.13c0,2.99-4.85,5.98-9.08,5.98-3.88,0-6.17-2.11-7.49-6.51-4.14,4.57-10.13,6.6-15.42,6.6-9.78,0-16.12-5.63-16.12-12.93,0-8.44,7.4-14.51,19.91-14.51,2.29,0,4.05.26,7.05.7-1.59-5.54-3.35-9.94-9.96-9.94-3.96,0-7.58,1.67-10.75,3.43-1.67,1.06-3.52-.26-2.2-2.46,2.2-3.69,8.9-8.18,17.36-8.18,11.28,0,14.62,7.74,16.56,15.04l4.32,16.54c.97,3.61,2.2,4.84,4.14,4.75.97,0,1.67.44,1.67,1.5ZM223.88,78c-.26-1.5-1.06-3.69-1.85-6.77-.62-2.02-4.05-2.9-6.87-2.9-6.25,0-9.96,3.17-9.96,8,.09,5.01,3.79,8.71,9.51,8.71,4.93,0,9.87-3.43,9.16-7.04Z"/>
    <path class="cls-1" d="M292.07,67.18c0,16.01-11.19,24.1-20.35,24.1-8.55,0-10.48-3.69-13.66-3.61-2.91.09-5.37,2.99-8.02,2.99-1.85,0-2.47-1.06-2.2-2.81.44-2.46.71-5.37.71-8.8l-.09-36.42c0-6.07-4.14-5.45-4.14-8.09,0-1.14.62-1.76,2.73-2.73,3.7-1.76,10.04-3.87,11.45-3.87s2.03.79,2.03,2.64l-.09,12.05v11.08c2.82-3.69,7.22-6.33,13.22-6.42,10.13-.09,18.41,7.65,18.41,19.88ZM280.7,72.55c0-10.64-4.85-18.3-11.28-18.3-5.9,0-9.25,5.89-9.16,11.26l.09,6.42c0,7.92,5.02,13.9,11.19,13.9s9.16-6.25,9.16-13.28Z"/>
    <path class="cls-1" d="M337.53,48.18c2.56,0,4.05.53,4.05,2.2,0,3.34-3.7,2.11-6.43,9.32l-11.19,28.68c-4.85,12.58-8.72,20.5-19.65,20.5-5.46,0-10.57-2.99-10.57-8.09,0-3.08,2.03-6.07,5.55-6.16,5.11,0,4.76,7.92,9.52,7.92,2.82,0,4.93-3.61,4.93-7.83,0-1.94-.53-3.87-1.32-5.81l-11.63-29.29c-2.82-7.12-6.43-5.89-6.43-9.24,0-1.76,1.5-2.2,3.88-2.2h13.39c2.47,0,3.96.53,3.96,2.2,0,3.34-5.02,2.11-2.2,9.32l8.19,20.94,7.93-20.94c2.82-7.21-1.94-5.98-1.94-9.32,0-1.76,1.5-2.2,3.88-2.2h6.08Z"/>
    <path class="cls-1" d="M349.07,87.76c-1.5-3.61-2.47-6.07-3.26-9.06-.44-1.94.09-2.9,1.15-3.43,1.23-.62,2.64.35,4.58,2.11,5.73,5.63,10.66,8.88,15.86,8.88,3,0,5.11-1.67,5.11-4.22,0-3.17-4.58-5.54-12.25-8.8-6.78-2.9-13.22-6.33-13.22-13.64,0-8.44,7.84-12.32,14.71-12.32,4.93,0,7.93,1.14,10.48,1.23,1.85,0,2.11-1.23,3.7-1.23,1.41,0,2.03.97,3.44,3.43,1.15,2.2,1.67,3.43,2.47,5.28.88,2.38.53,3.61-.62,4.13-1.67.88-3.17-.7-5.99-2.73-3.44-2.46-7.93-5.01-11.81-5.01-3.61,0-5.37,1.94-5.37,4.05,0,3.08,3.7,4.93,10.92,8,9.34,4.13,15.33,7.65,15.33,13.99,0,7.65-7.31,12.84-16.56,12.84-6.96,0-10.04-1.76-11.89-1.76-1.32,0-1.76,1.76-3.44,1.76-1.59,0-2.2-.7-3.35-3.52Z"/>
    <path class="cls-1" d="M394.79,62.08c0-6.07-4.23-5.45-4.23-8.09,0-1.23.62-1.85,2.73-2.81,3.7-1.67,10.04-3.78,11.45-3.78,1.41-.09,2.03.79,2.03,2.64l-.09,12.05v16.1c0,8.18,4.32,6.16,4.32,10.03,0,1.76-1.5,2.2-3.88,2.2h-12.6c-2.55,0-4.05-.53-4.05-2.29,0-3.78,4.32-1.76,4.32-9.94v-16.1ZM392.5,37.1c.09-4.05,4.76-8.53,9.25-8.36,3.17.09,5.55,2.55,5.55,5.54-.18,4.31-4.93,8.27-9.52,8.18-3.35-.09-5.37-2.46-5.29-5.37Z"/>
    <path class="cls-1" d="M446.15,82.31c-1.32,3.96-5.9,8.97-13.3,8.97-7.93,0-12.51-4.93-12.51-13.9v-4.57c0-7.83.09-14.51.26-19.09h-2.38c-2.38,0-3.08-.79-3.08-2.29,0-1.06.35-2.11,1.32-2.99,3.26-3.34,7.49-6.77,11.1-8.97,2.03-1.14,2.73-1.23,3.26-1.23,1.23,0,2.03,1.14,1.94,2.46-.26,2.38-.35,4.75-.44,7.48h8.72c1.67,0,3.08.44,2.55,3.08-.53,2.64-2.03,3.08-3.79,2.99l-7.58-.26c0,4.84,0,10.82-.09,18.83-.09,7.83,1.14,10.2,5.11,10.2,2.29,0,4.49-1.14,6.34-2.55,1.67-1.23,3.17,0,2.55,1.85Z"/>
    <path class="cls-1" d="M451.87,87.76c-1.5-3.61-2.47-6.07-3.26-9.06-.44-1.94.09-2.9,1.15-3.43,1.23-.62,2.64.35,4.58,2.11,5.73,5.63,10.66,8.88,15.86,8.88,3,0,5.11-1.67,5.11-4.22,0-3.17-4.58-5.54-12.25-8.8-6.78-2.9-13.22-6.33-13.22-13.64,0-8.44,7.84-12.32,14.71-12.32,4.93,0,7.93,1.14,10.48,1.23,1.85,0,2.11-1.23,3.7-1.23,1.41,0,2.03.97,3.44,3.43,1.15,2.2,1.67,3.43,2.47,5.28.88,2.38.53,3.61-.62,4.13-1.67.88-3.17-.7-5.99-2.73-3.44-2.46-7.93-5.01-11.81-5.01-3.61,0-5.37,1.94-5.37,4.05,0,3.08,3.7,4.93,10.92,8,9.34,4.13,15.33,7.65,15.33,13.99,0,7.65-7.31,12.84-16.56,12.84-6.96,0-10.04-1.76-11.89-1.76-1.32,0-1.76,1.76-3.44,1.76-1.59,0-2.2-.7-3.35-3.52Z"/>
  </g>
</svg>